<svg width="248" height="182" viewBox="0 0 248 182" fill="none" xmlns="http://www.w3.org/2000/svg">
<g clip-path="url(#clip0_299_155)">
<path d="M224.564 181.157H171.98V179.559C171.98 178.171 172.536 176.839 173.527 175.858C174.518 174.877 175.862 174.325 177.263 174.325H219.282C220.683 174.325 222.026 174.877 223.017 175.858C224.008 176.839 224.564 178.171 224.564 179.559V181.157Z" fill="#E6E6E6"/>
<path d="M197.041 174.644L198.64 174.006C181.909 132.861 183.52 80.9534 197.664 36.4258C199.345 31.2667 199.466 25.7335 198.013 20.507C196.56 15.2805 193.597 10.5887 189.488 7.00883C181.278 -0.249031 169.96 -2.01711 159.949 2.39411C150.067 6.74905 148.705 14.3347 148.705 21.8834H150.429C150.429 13.8255 152.167 7.69292 160.65 3.95473C170.033 -0.179392 180.643 1.47881 188.34 8.28339C192.2 11.6457 194.983 16.0523 196.347 20.9613C197.712 25.8702 197.598 31.0672 196.02 35.9129C181.713 80.9546 180.195 133.219 197.041 174.644Z" fill="#E6E6E6"/>
<path d="M149.998 47.0773C153.33 47.0773 156.032 44.4008 156.032 41.0992C156.032 37.7976 153.33 35.1211 149.998 35.1211C146.665 35.1211 143.963 37.7976 143.963 41.0992C143.963 44.4008 146.665 47.0773 149.998 47.0773Z" fill="#E6E6E6"/>
<path d="M140.705 51.5204V40.1934H142.483V51.5204C142.992 51.7248 143.415 52.0985 143.677 52.5775C143.939 53.0565 144.025 53.6111 143.92 54.146C143.815 54.6809 143.526 55.163 143.101 55.5096C142.677 55.8562 142.144 56.0458 141.594 56.0458C141.043 56.0458 140.511 55.8562 140.086 55.5096C139.661 55.163 139.372 54.6809 139.267 54.146C139.162 53.6111 139.248 53.0565 139.51 52.5775C139.772 52.0985 140.195 51.7248 140.705 51.5204Z" fill="#E6E6E6"/>
<path d="M132.11 31.4911C132.113 28.8873 133.159 26.3909 135.017 24.5497C136.876 22.7086 139.396 21.6729 142.024 21.6699H158.403C161.032 21.6699 163.553 22.7046 165.412 24.5465C167.272 26.3883 168.316 28.8864 168.316 31.4911C168.316 34.0958 167.272 36.5939 165.412 38.4357C163.553 40.2775 161.032 41.3123 158.403 41.3123H142.024C139.396 41.3093 136.876 40.2736 135.017 38.4324C133.159 36.5912 132.113 34.0949 132.11 31.4911Z" fill="#6C63FF"/>
<path d="M109.033 92.3101C110.678 71.4668 119.086 61.536 113.702 55.3083C108.545 49.3429 94.0184 50.5752 84.6892 56.2994C59.5263 71.739 50.3076 133.275 82.6884 163.341C113.458 191.91 171.773 182.76 184.733 159.376C187.757 153.92 190.159 144.355 185.733 138.562C174.746 124.181 134.798 150.23 117.037 133.937C106.511 124.282 108.131 103.749 109.033 92.3101Z" fill="#3F3D56"/>
<path d="M128.268 81.9551C127.657 82.2337 127.18 82.7374 126.938 83.3593C126.696 83.9812 126.708 84.672 126.973 85.2849C127.028 85.4086 127.094 85.5276 127.17 85.6405L121.769 92.7848L124.464 96.7753L130.795 86.1961C131.243 85.8495 131.563 85.3657 131.705 84.82C131.847 84.2743 131.802 83.6974 131.578 83.1795C131.448 82.8859 131.261 82.6207 131.027 82.3989C130.793 82.1772 130.517 82.0032 130.216 81.8869C129.914 81.7706 129.592 81.7143 129.269 81.7213C128.945 81.7282 128.626 81.7982 128.33 81.9273C128.309 81.9363 128.289 81.9456 128.268 81.9551Z" fill="#FFB6B6"/>
<path d="M128.264 94.2724C128.618 94.583 127.637 94.9662 126.6 94.3617C126.303 94.1866 126.176 94.1139 126.143 94.1601C126.06 94.2758 126.547 95.1281 126.417 97.0212C126.337 98.151 124.442 100.275 122.291 102.347C119.384 105.148 116.002 107.851 116.002 107.851L114.815 106.909L102.366 97.0212L100.265 94.1403C100.458 93.0027 100.746 91.8831 101.129 90.7936C101.656 89.2855 102.282 87.8133 103.003 86.3864C103.39 85.6101 103.787 84.87 104.167 84.1895L110.836 91.4709L116.426 97.5696C116.426 97.5696 118.053 94.9729 119.313 94.2659C119.474 94.1642 119.657 94.1019 119.847 94.0842C121.121 94.0247 121.198 93.3375 119.72 91.8409C118.243 90.3443 120.107 91.7418 121.421 91.3388C122.735 90.9357 121.421 91.3388 121.698 90.3311C121.975 89.3235 125.66 87.3016 125.66 87.3016L125.813 87.437L128.598 89.8719L129.395 90.569C129.395 90.569 128.524 92.9345 128.284 93.4333C128.044 93.9322 127.914 93.9586 128.264 94.2724Z" fill="#6C63FF"/>
<path d="M201.668 140.166L201.804 136.522L187.681 134.27L187.48 139.648L201.668 140.166Z" fill="#FFB6B6"/>
<path d="M199.105 141.264L198.971 135.429L201.488 135.521L205.553 130.128C205.754 129.861 206.035 129.665 206.356 129.568C206.678 129.472 207.021 129.479 207.338 129.59C207.654 129.7 207.927 129.908 208.116 130.183C208.304 130.458 208.4 130.785 208.387 131.118L208.129 138.049L205.594 139.152L208.067 139.71L207.97 142.323L199.105 141.264Z" fill="#2F2E41"/>
<path d="M122.181 141.586L166.915 142.71C166.915 142.71 186.232 143.815 190.765 140.894L195.544 140.296L195.803 133.341C195.803 133.341 192.88 133.362 191.2 132.587C189.52 131.811 190.688 130.862 189.085 131.795C187.483 132.728 187.653 132.841 186.414 132.412C185.175 131.983 128.372 123.405 128.372 123.405L122.181 141.586Z" fill="#2F2E41"/>
<path d="M181.128 138.567L183.729 135.987L174.922 124.819L171.083 128.627L181.128 138.567Z" fill="#FFB6B6"/>
<path d="M178.495 136.323L182.403 131.955L184.185 133.719L190.868 132.504C191.198 132.443 191.539 132.489 191.841 132.635C192.142 132.78 192.389 133.017 192.545 133.312C192.702 133.606 192.759 133.942 192.708 134.271C192.658 134.599 192.503 134.904 192.266 135.139L187.318 140.046L184.702 139.147L186.132 141.222L184.267 143.072L178.495 136.323Z" fill="#2F2E41"/>
<path d="M104.532 117.314L104.976 127.556C105.5 139.612 118.902 146.909 129.295 140.614C129.486 140.498 129.679 140.378 129.871 140.254C129.871 140.254 133.811 139.205 133.692 137.546C133.572 135.886 134.534 135.078 135.386 135.53C136.238 135.983 147.39 120.303 147.39 120.303C147.39 120.303 170.561 131.754 175.672 134.449C175.672 134.449 180.478 127.005 180.13 127.083C179.782 127.161 151.465 107.526 151.465 107.526C151.465 107.526 146.852 102.901 141.13 105.955C141.01 106.404 141.112 106.419 141.112 106.419L122.209 121.679L119.538 116.653L104.532 117.314Z" fill="#2F2E41"/>
<path d="M122.355 104.51C122.319 104.984 122.251 105.454 122.151 105.918C122.015 106.59 121.796 107.242 121.498 107.86C121.498 107.86 121.498 108.551 120.164 110.864C118.83 113.176 120.497 112.185 121.498 113.903C122.498 115.618 121.498 114.828 120.387 115.931C120.067 116.253 119.84 116.653 119.73 117.09C119.619 117.528 119.628 117.987 119.757 118.419C119.757 118.419 105.431 118.429 102.763 117.438C100.095 116.447 99.4881 110.864 101.879 110.312C104.267 109.76 101.155 109.212 99.7515 107.94C98.3476 106.668 101.155 104.586 101.155 104.586C101.155 104.586 99.9983 102.608 100.095 95.9637C100.109 95.3526 100.165 94.7433 100.265 94.14C100.457 93.0024 100.746 91.8829 101.129 90.7934C101.656 89.2853 102.282 87.813 103.003 86.3862C103.39 85.6098 103.787 84.8698 104.167 84.1892C104.227 84.0835 104.283 83.9811 104.344 83.8786C105.067 82.61 105.727 81.5726 106.164 80.9086C106.501 80.3932 106.705 80.1025 106.705 80.1025L109.132 75.9199L117.236 79.6829L116.776 85.8377L118.173 90.4795L118.816 92.617L119.313 94.2656L120.08 96.8194C120.08 96.8194 119.87 96.8293 120.12 97.1696C121.272 98.6867 122.019 100.467 122.291 102.347C122.387 103.064 122.409 103.789 122.355 104.51Z" fill="#6C63FF"/>
<path d="M145.757 105.174L145.605 105.125L126.209 98.9379L133.356 75.7087C133.498 75.2462 133.745 74.8216 134.077 74.4671C134.409 74.1127 134.818 73.8375 135.273 73.6623C135.728 73.4871 136.217 73.4166 136.703 73.4559C137.19 73.4953 137.661 73.6435 138.081 73.8895L150.476 81.1442C151.457 81.7178 152.203 82.6147 152.585 83.6783C152.966 84.7418 152.958 85.9042 152.562 86.9625L145.757 105.174Z" fill="#2F2E41"/>
<path d="M145.835 106.651L126.284 100.413L133.431 77.1843C133.573 76.7218 133.82 76.2972 134.152 75.9427C134.484 75.5882 134.893 75.313 135.348 75.1379C135.802 74.9627 136.292 74.8921 136.778 74.9315C137.265 74.9709 137.736 75.1191 138.156 75.3651L151.142 81.7884C153.093 82.93 153.048 85.8848 152.142 88.3092L145.835 106.651Z" fill="#6C63FF"/>
<path d="M143.878 108.332C143.428 108.584 142.93 108.74 142.415 108.79C141.901 108.841 141.381 108.785 140.89 108.626L128.393 104.639C127.434 104.329 126.636 103.66 126.169 102.774C125.701 101.888 125.602 100.857 125.892 99.8999L132.158 79.5366C132.283 79.1298 132.489 78.7518 132.763 78.4249C133.038 78.0979 133.376 77.8286 133.757 77.6327C134.138 77.4367 134.554 77.3181 134.982 77.2838C135.41 77.2495 135.841 77.3003 136.248 77.433L149.199 81.6456C149.816 81.8463 150.386 82.1675 150.876 82.5901C151.366 83.0128 151.765 83.5284 152.05 84.1065C152.335 84.6846 152.501 85.3134 152.536 85.9558C152.572 86.5983 152.477 87.2413 152.258 87.8469L145.559 106.349C145.258 107.189 144.661 107.893 143.878 108.332Z" fill="#3F3D56"/>
<path d="M116.236 79.4304C121.179 79.4304 125.187 75.4602 125.187 70.5628C125.187 65.6654 121.179 61.6953 116.236 61.6953C111.293 61.6953 107.285 65.6654 107.285 70.5628C107.285 75.4602 111.293 79.4304 116.236 79.4304Z" fill="#FFB6B6"/>
<path d="M86.51 76.1258C87.3314 77.7032 88.6782 78.9506 90.3221 79.6563C90.9781 79.9524 91.6678 80.1687 92.3763 80.3004C92.5766 79.5136 92.8972 78.7618 93.327 78.071C93.1838 78.8496 93.1838 79.6474 93.327 80.4259C94.4064 80.5134 95.4924 80.3799 96.5174 80.0336C97.5241 79.6944 98.4372 79.1275 99.1842 78.3778C99.9311 77.628 100.491 76.7162 100.821 75.7145C101.534 73.364 100.766 70.8535 100.705 68.4C100.643 65.9463 101.819 63.0116 104.278 62.708C106.15 62.4764 105.919 62.6562 107.264 63.9667C105.382 66.0378 109.97 75.2112 112.432 74.8059C113.824 74.5767 114.848 73.4819 115.124 73.5199C116.533 76.94 112.293 81.7906 115.656 83.383L115.407 83.0558C113.646 80.1747 118.855 75.3085 117.095 72.4273C116.604 71.6213 116.094 70.6763 116.397 69.7847C116.686 68.937 118.145 68.6687 118.453 69.4403C117.952 67.6718 119.35 65.5961 121.206 65.4156C122.855 65.2545 122.76 65.7201 124.332 66.1449C124.533 65.4739 124.822 64.8322 125.193 64.2364C125.067 64.9162 125.052 65.6114 125.147 66.2959C125.714 66.363 126.287 66.2427 126.778 65.9538C128.23 65.0916 128.273 62.866 127.276 61.5114C126.277 60.1566 124.603 59.4877 122.989 58.9815C122.974 55.5989 113.786 53.9795 112.097 57.1245C111.923 54.578 108.976 52.8627 106.438 53.2953C103.9 53.7278 101.898 55.7441 100.677 57.9914C99.4563 60.237 98.8504 62.7514 97.9568 65.1433C97.0632 67.5352 95.7859 69.9202 93.6463 71.3394C91.5069 72.7568 88.3274 72.8855 86.5411 71.0484C86.1337 71.8328 85.9186 72.7013 85.9132 73.5834C85.9078 74.4656 86.1122 75.3366 86.51 76.1258Z" fill="#2F2E41"/>
<path d="M95.6944 116.676C95.8796 116.529 96.0806 116.403 96.2936 116.3C99.7196 114.611 110.374 110.226 118.704 110.406C134.733 110.752 155.133 128.277 150.385 140.046C146.773 149.001 128.813 154.096 115.703 150.021C97.3373 144.313 90.0881 121.104 95.6944 116.676Z" fill="#3F3D56"/>
<path d="M29.1511 181.191C23.9135 180.212 19.2772 156.836 29.5821 145.323C33.1127 141.378 37.5167 139.661 43.3748 138.063C77.092 128.867 102.809 137.632 106.265 139.771C109.713 141.906 115.758 174.076 108.028 178.629C103.679 181.191 95.0582 182.472 90.787 179.483C84.5024 175.085 95.0513 163.677 90.356 155.998C85.0279 147.284 56.9711 144.348 42.9047 153.009C27.8973 162.248 58.8525 186.742 29.1511 181.191Z" fill="#F2F2F2"/>
<path d="M64.1691 141.446H44.1595C39.2199 136.756 35.6881 132.236 38.5157 128.484C38.5157 127.406 38.9481 126.372 39.7179 125.609C40.4876 124.846 41.5317 124.418 42.6202 124.418H65.7083C66.7969 124.418 67.8409 124.846 68.6106 125.609C69.3804 126.372 69.8128 127.406 69.8128 128.484C70.8894 132.759 68.9661 137.08 64.1691 141.446Z" fill="#CCCCCC"/>
<path d="M60.5757 119.298C60.3859 119.307 60.1979 119.258 60.0373 119.157C59.8768 119.056 59.7513 118.909 59.678 118.735C59.6047 118.562 59.587 118.37 59.6275 118.186C59.6679 118.002 59.7644 117.835 59.904 117.707L59.9675 117.457C59.9591 117.437 59.9507 117.417 59.9422 117.397C59.751 116.949 59.4305 116.567 59.021 116.3C58.6116 116.032 58.1314 115.89 57.6408 115.892C57.1502 115.894 56.6711 116.039 56.2636 116.31C55.8562 116.581 55.5386 116.965 55.3507 117.413C54.5997 119.205 53.6436 121 53.4082 122.895C53.3045 123.732 53.3482 124.581 53.5374 125.404C51.7736 121.592 50.8577 117.449 50.8518 113.256C50.8514 112.204 50.9104 111.152 51.0285 110.107C51.1262 109.249 51.2616 108.398 51.4348 107.553C52.3802 102.968 54.41 98.6704 57.3574 95.0133C58.784 94.2421 59.9377 93.0563 60.663 91.6156C60.9258 91.0977 61.1115 90.5449 61.2144 89.9743C61.0535 89.9952 60.6076 87.5672 60.729 87.4182C60.5047 87.0811 60.1033 86.9135 59.8584 86.5845C58.6403 84.9483 56.962 85.234 56.0859 87.4574C54.2142 88.3933 54.1961 89.9452 55.3445 91.4379C56.0752 92.3875 56.1756 93.6725 56.8166 94.6892C56.7507 94.7728 56.6821 94.8538 56.6161 94.9375C55.4105 96.4733 54.3597 98.1226 53.4788 99.8615C53.693 97.9134 53.4373 95.9427 52.7328 94.1116C52.0187 92.4051 50.6804 90.9678 49.5018 89.4925C48.0861 87.7205 45.183 88.4938 44.9336 90.7402C44.9312 90.7619 44.9288 90.7837 44.9266 90.8054C45.1016 90.9033 45.273 91.0071 45.4406 91.117C45.6513 91.2564 45.8145 91.4556 45.9089 91.6885C46.0033 91.9213 46.0245 92.1771 45.9697 92.4221C45.9149 92.6671 45.7867 92.89 45.6018 93.0616C45.417 93.2332 45.1841 93.3455 44.9337 93.3837L44.9081 93.3876C44.9705 94.0127 45.0807 94.6321 45.2379 95.2407C43.7259 101.034 46.9902 103.143 51.6512 103.238C51.7541 103.29 51.8543 103.343 51.9572 103.392C51.0722 105.877 50.517 108.465 50.3057 111.092C50.1861 112.642 50.1932 114.198 50.3268 115.747L50.3189 115.692C49.9812 113.97 49.054 112.416 47.694 111.293C45.6739 109.649 42.82 109.044 40.6407 107.722C40.4091 107.575 40.1398 107.497 39.8646 107.496C39.5893 107.495 39.3197 107.573 39.0873 107.719C38.855 107.865 38.6697 108.074 38.5533 108.321C38.437 108.568 38.3943 108.843 38.4305 109.113C38.4334 109.133 38.4364 109.152 38.4394 109.171C38.7643 109.302 39.0806 109.453 39.3865 109.623C39.5615 109.721 39.7329 109.825 39.9006 109.935C40.1112 110.074 40.2744 110.273 40.3688 110.506C40.4632 110.739 40.4844 110.995 40.4296 111.24C40.3748 111.485 40.2466 111.708 40.0617 111.879C39.8769 112.051 39.644 112.163 39.3937 112.201L39.368 112.205C39.3495 112.208 39.3337 112.211 39.3152 112.213C39.8703 113.526 40.6494 114.735 41.6183 115.786C42.5637 120.843 46.6243 121.323 50.9679 119.85H50.9705C51.4471 121.902 52.1376 123.899 53.0309 125.809H60.3913C60.4177 125.728 60.4414 125.644 60.4652 125.563C59.7839 125.606 59.0999 125.565 58.4285 125.443C58.9746 124.779 59.5207 124.11 60.0668 123.446C60.079 123.434 60.0905 123.421 60.1011 123.407C60.3781 123.067 60.6578 122.73 60.9348 122.39L60.9349 122.39C60.9497 121.349 60.8291 120.31 60.576 119.299L60.5757 119.298Z" fill="#CCCCCC"/>
<path d="M85.6807 140.383C85.8027 140.735 86.0343 141.04 86.3421 141.253C86.6499 141.467 87.0182 141.578 87.3939 141.572L94.7345 141.385C95.113 141.377 95.479 141.249 95.7777 141.018C96.0764 140.788 96.2918 140.468 96.3917 140.106L97.4305 129.102C97.799 129.267 98.2003 129.349 98.6048 129.341C99.3145 129.323 99.9882 129.027 100.477 128.518C100.967 128.008 101.232 127.326 101.214 126.623C101.196 125.92 100.897 125.253 100.382 124.768C99.868 124.283 99.1802 124.021 98.4704 124.039C98.3087 124.038 98.1475 124.055 97.9893 124.088C97.8174 123.904 97.6084 123.757 97.3758 123.658C97.1432 123.558 96.8921 123.508 96.6388 123.511L85.3473 123.8C85.2536 123.803 85.1604 123.815 85.0688 123.834C84.8211 123.88 84.5863 123.977 84.38 124.121C84.1737 124.264 84.0008 124.449 83.8728 124.664C83.7449 124.879 83.6649 125.119 83.6383 125.367C83.6117 125.615 83.639 125.866 83.7185 126.103L85.6807 140.383ZM97.6435 128.355L98.3827 125.733C98.4668 125.43 98.4687 125.11 98.3883 124.806C98.4242 124.806 98.4558 124.789 98.4917 124.789C98.9985 124.779 99.4886 124.968 99.8548 125.315C100.221 125.663 100.433 126.139 100.445 126.641C100.457 127.143 100.267 127.63 99.9181 127.993C99.5687 128.357 99.088 128.569 98.5814 128.582C98.2537 128.592 97.9295 128.514 97.6435 128.355Z" fill="#CCCCCC"/>
<path d="M85.0688 123.834C85.3094 125.197 88.014 126.155 91.2662 125.988C94.2567 125.852 96.7019 124.812 97.1499 123.579C96.9841 123.53 96.8117 123.507 96.6389 123.511L85.3474 123.8C85.2537 123.803 85.1605 123.815 85.0688 123.834Z" fill="white"/>
<path d="M0.393123 181.707L247.607 181.807C247.711 181.807 247.811 181.766 247.885 181.693C247.959 181.62 248 181.521 248 181.418C248 181.314 247.959 181.215 247.885 181.142C247.811 181.069 247.711 181.028 247.607 181.028L0.393123 180.928C0.28886 180.928 0.188868 180.969 0.115143 181.042C0.0414176 181.115 0 181.214 0 181.317C0 181.421 0.0414176 181.52 0.115143 181.593C0.188868 181.666 0.28886 181.707 0.393123 181.707Z" fill="#CACACA"/>
<path d="M139.047 94.6658C138.375 94.6901 137.739 94.9733 137.274 95.4552C136.81 95.9371 136.553 96.5797 136.559 97.2461C136.563 97.3815 136.577 97.5165 136.603 97.6495L128.845 102.187L129.784 106.898L139.734 99.543C140.282 99.394 140.765 99.0692 141.108 98.6195C141.451 98.1697 141.633 97.6202 141.628 97.0568C141.621 96.7362 141.551 96.42 141.422 96.1262C141.292 95.8324 141.105 95.5669 140.872 95.3446C140.638 95.1224 140.363 94.9479 140.062 94.831C139.76 94.7142 139.439 94.6573 139.115 94.6636C139.093 94.664 139.07 94.6647 139.047 94.6658Z" fill="#FFB6B6"/>
<path d="M132.692 105.483C132.484 105.208 132.395 105.093 132.348 105.124C132.227 105.197 132.343 106.17 131.489 107.866C130.286 110.249 117.673 113.899 117.673 113.899L116.12 111.082L109.29 98.705L106.936 88.7843C106.853 88.4384 106.813 88.0839 106.817 87.7285C108.916 86.2651 111.145 84.9939 113.477 83.9307C114.408 84.4542 115.119 85.2926 115.478 86.2924L120.179 99.353L122.056 104.568C122.056 104.568 125.365 102.223 126.566 102.653C127.764 103.086 128.105 102.479 127.321 100.535C126.538 98.5917 127.714 100.593 129.082 100.72C130.454 100.849 129.082 100.72 129.73 99.8949C130.378 99.0701 134.565 98.606 134.565 98.606L134.654 98.79L136.277 102.097L136.742 103.047C136.742 103.047 135.021 104.896 134.606 105.265C134.189 105.636 134.06 105.611 134.265 106.033C134.466 106.454 133.413 106.435 132.692 105.483Z" fill="#6C63FF"/>
</g>
<defs>
<clipPath id="clip0_299_155">
<rect width="248" height="182" fill="white"/>
</clipPath>
</defs>
</svg>
